<svg width="182" height="234" viewBox="0 0 182 234" fill="none" xmlns="http://www.w3.org/2000/svg">
<path d="M134.269 127.905C114.041 113.058 92.4391 89.3033 86.9758 63.1281C86.5636 68.9345 86.5657 74.7541 87.6051 80.7999C89.4644 91.6408 93.6172 101.923 99.4387 111.198C105.399 120.693 113.045 128.66 121.346 136.067C129.15 143.029 136.497 150.175 138.164 161.019C146.723 163.086 154.705 167.11 160.876 173.816C167.073 180.548 170.225 188.896 170.162 197.366C173.217 189.979 174.497 182.012 172.176 172.625C167.122 152.193 150.221 139.613 134.269 127.905Z" fill="#41B883"/>
<path d="M91.0271 105.539C84.5223 92.3997 79.94 74.6316 82.8561 59.201C77.8181 73.588 76.0756 89.0907 77.8851 104.366C80.2633 124.439 89.3023 150.668 108.352 160.391C111.613 159.968 114.844 159.593 118.012 159.403C123.011 159.102 128.127 159.277 133.133 160.041C130.158 147.355 118.001 140.159 109.413 131.293C102.073 123.713 95.7291 115.034 91.0271 105.539Z" fill="#41B883"/>
<path d="M65.7424 25.6512C62.7614 17.0337 57.8795 9.22077 51.7827 2.48452C51.1492 1.78471 50.4979 1.0658 49.8298 0.333313C50.511 1.38366 51.1707 2.43613 51.8042 3.46908C56.083 10.4353 59.654 17.902 61.9239 25.7896C66.4843 41.6365 63.9548 57.3786 60.7761 73.2128C57.1267 91.3734 54.3493 109.622 62.0866 127.197C68.6087 142.014 80.6484 152.627 95.5801 157.517C82.1388 144.77 75.3175 123.936 73.0847 106.4C71.848 96.682 71.9563 86.8936 73.3364 77.3153C72.7159 59.8324 71.5791 42.5116 65.7424 25.6512Z" fill="#41B883"/>
<path d="M43.177 56.1946C37.7917 70.2659 31.8728 84.5604 30.9398 99.7958C30.43 108.155 31.3825 116.762 34.5111 124.566C35.3747 126.723 36.427 128.719 37.5943 130.622C46.5335 139.358 53.7781 149.967 64.2948 156.754C73.542 162.72 83.8981 163.095 94.3757 162.119C66.3733 153.644 50.1981 124.963 52.5026 95.7217C53.8628 78.4841 60.0961 61.8958 60.183 44.5181C60.2504 30.7693 55.6074 18.8535 49.0828 7.71637C49.968 10.5058 50.6559 13.3628 51.077 16.2881C53.0931 30.2864 48.161 43.1732 43.2512 56.0006L43.177 56.1946Z" fill="#41B883"/>
<path d="M101.272 233.214C117.122 234.727 135.072 233.359 148.778 224.436C164.15 214.431 170.799 194.193 158.42 178.951C134.571 149.583 96.3429 176.989 67.2407 164.244C53.0378 158.023 45.0122 143.948 33.8728 133.859C26.0163 126.745 16.7647 121.616 6.8643 118.47C9.79559 119.996 12.6487 121.695 15.3891 123.621C25.322 130.592 32.2216 139.753 39.3253 149.469C48.2448 161.668 59.6944 169.691 74.6783 172.11C87.4232 174.171 101.713 172.083 113.668 177.769C121.924 181.697 128.5 191.143 125.185 200.557C121.824 210.095 110.537 215.189 101.431 216.928C77.3798 221.524 55.5092 206.883 41.5362 188.253C32.1609 175.752 26.0098 161.532 19.2577 147.524C15.6776 140.093 11.2297 133.743 4.97234 128.388C3.47739 127.107 1.92172 125.917 0.333496 124.772C13.7076 140.698 19.748 162.849 28.3813 181.872C42.0417 211.972 68.727 230.107 101.272 233.214Z" fill="#41B883"/>
<path d="M17.7257 130.6C12.4512 126.118 6.60166 122.566 0.381104 119.829C4.2063 122.327 7.80585 125.182 11.0365 128.245C19.6568 136.42 23.8747 147.114 28.9648 157.646C39.4119 179.25 53.5693 202.19 77.4446 210.142C88.7968 213.922 102.184 213.617 112.568 207.173C118.671 203.383 123.156 196.781 119.251 189.644C115.43 182.659 107.324 180.471 100.058 179.546C88.5515 178.083 76.8503 178.649 65.6283 175.237C56.3529 172.415 47.9303 167.001 41.4428 159.732C33.02 150.301 27.4872 138.891 17.7257 130.6Z" fill="#41B883"/>
<path d="M155.339 226.039C162.316 231.918 173.779 227.489 178.604 220.492C183.736 213.056 181.937 203.147 175.515 197.367C173.115 204.065 169.298 210.363 164.61 215.758C162.073 219.77 158.919 223.175 155.339 226.039Z" fill="#41B883"/>
</svg>
