<?xml version="1.0" encoding="UTF-8" standalone="no"?>
<!DOCTYPE svg PUBLIC "-//W3C//DTD SVG 1.1//EN" "http://www.w3.org/Graphics/SVG/1.1/DTD/svg11.dtd">
<!-- Created with Vectornator (http://vectornator.io/) -->
<svg height="100%" stroke-miterlimit="10" style="fill-rule:nonzero;clip-rule:evenodd;stroke-linecap:round;stroke-linejoin:round;" version="1.1" viewBox="112.881 98.0721 462.201 502.919" width="100%" xml:space="preserve" xmlns="http://www.w3.org/2000/svg" xmlns:vectornator="http://vectornator.io" xmlns:xlink="http://www.w3.org/1999/xlink">
<defs/>
<g id="Layer-2" vectornator:layerName="Layer 2">
<path d="M315.069 453.455C315.069 453.455 365.951 443.147 374.063 412.192C383.282 377.005 366.736 348.813 327.115 321.711C287.495 294.61 246.206 299.205 215.58 303.786C161.597 275.285 123.165 176.904 155.714 147.801C231.881 79.6972 388.334 298.574 388.334 298.574L441.636 282.731C441.636 282.731 541.721 248.591 556.486 313.083C567.944 363.13 496.854 404.222 452.266 427.391C451.469 423.93 454.622 541.472 367.377 571.937C189.739 633.966 87.9359 431.488 147.147 378.548C235.134 299.881 359.55 447.089 302.404 486.965C259.93 516.604 204.513 458.545 204.513 458.545" fill="none" opacity="1" stroke="#009af9" stroke-linecap="butt" stroke-linejoin="round" stroke-width="34.727" vectornator:layerName="Curve 1"/>
<path d="M366.917 137.947C369.892 143.818 371.86 148.044 372.821 150.627C373.782 153.209 374.047 155.879 373.616 158.638C373.184 161.396 372.004 163.945 370.074 166.284C368.145 168.622 365.532 170.627 362.236 172.297C359.108 173.882 356.04 174.794 353.032 175.034C350.024 175.273 347.243 174.754 344.691 173.477C342.139 172.201 340.109 170.432 338.601 168.173C337.093 165.913 334.815 161.776 331.767 155.761L326.701 145.764C323.726 139.894 321.758 135.668 320.797 133.085C319.836 130.503 319.571 127.833 320.003 125.074C320.434 122.315 321.614 119.767 323.544 117.428C325.473 115.09 328.086 113.085 331.382 111.415C334.51 109.83 337.578 108.918 340.586 108.678C343.595 108.439 346.375 108.957 348.927 110.234C351.479 111.511 353.509 113.28 355.017 115.539C356.525 117.799 358.803 121.936 361.851 127.951L366.917 137.947ZM341.994 126.448C340.616 123.729 339.585 122.067 338.9 121.462C338.216 120.856 337.404 120.791 336.466 121.267C335.672 121.669 335.22 122.284 335.11 123.111C334.999 123.937 335.706 125.855 337.23 128.862L351.057 156.145C352.776 159.538 353.975 161.561 354.654 162.214C355.333 162.868 356.178 162.939 357.189 162.427C358.223 161.903 358.653 161.11 358.479 160.05C358.304 158.989 357.345 156.739 355.601 153.298L341.994 126.448Z" fill="#fec11a" opacity="1" stroke="none" vectornator:layerName="Text 1"/>
<path d="M475.521 112.41L455.949 136.633L453.247 174.017L436.783 167.798L440.27 139.101L430.349 165.368L414.414 159.35L437.558 98.0721L453.493 104.09L444.501 127.897L460.57 106.764L475.521 112.41Z" fill="#fec11a" opacity="1" stroke="none" vectornator:layerName="Text 1"/>
<path d="M536.841 204.971L496.512 222C491.94 223.93 488.666 225.137 486.689 225.621C484.712 226.104 482.438 226.025 479.869 225.382C477.299 224.74 475.005 223.432 472.986 221.459C470.967 219.486 469.271 216.872 467.896 213.617C466.375 210.014 465.628 206.582 465.656 203.32C465.684 200.058 466.367 197.34 467.703 195.165C469.039 192.991 470.717 191.331 472.737 190.185C474.756 189.04 479.17 187.03 485.979 184.155L521.686 169.078L528.311 184.77L483.063 203.875C480.429 204.988 478.806 205.841 478.193 206.437C477.581 207.032 477.458 207.764 477.825 208.634C478.245 209.628 478.919 210.097 479.847 210.042C480.776 209.987 482.743 209.324 485.75 208.055L530.215 189.28L536.841 204.971Z" fill="#fec11a" opacity="1" stroke="none" vectornator:layerName="Text 2"/>
</g>
</svg>
